# xmcd
#
# Track frame offsets: 
#        150
#        14974
#        27388
#        40044
#        50892
#        64627
#        74622
#        88371
#        97771
#        111751
#        129651
#        141794
#        156716
#        170924
#        181879
#        190617
#        208271
#        217058
#
# Disc length: 3002 seconds
#
# Revision: 0
# Processed by: cddbd v1.5.2PL0 Copyright (c) Steve Scherf et al.
# Submitted via: ExactAudioCopy v0.99pb5
#
DISCID=1f0bb812
DTITLE=George Brassens - George Brassens
DYEAR=2008
DGENRE=Ballad
TTITLE0=Le gorille
TTITLE1=Les sabots D'helene
TTITLE2=La mauvaise herbe
TTITLE3=Les croquants
TTITLE4=Chanson pour L'auvergnat
TTITLE5=La mauvaise reputation
TTITLE6=Les amoureux des bancs publics
TTITLE7=La chasse aux papillons
TTITLE8=Aupres de mon arbre
TTITLE9=Le testament
TTITLE10=Une jolie fleur
TTITLE11=Brave Margot
TTITLE12=La legende de la nonne
TTITLE13=Le nombril des femmes d'agents
TTITLE14=Colombine
TTITLE15=Je m'suis fait tout petit
TTITLE16=Hecatombe
TTITLE17=Marinette
EXTD=
EXTT0=
EXTT1=
EXTT2=
EXTT3=
EXTT4=
EXTT5=
EXTT6=
EXTT7=
EXTT8=
EXTT9=
EXTT10=
EXTT11=
EXTT12=
EXTT13=
EXTT14=
EXTT15=
EXTT16=
EXTT17=
PLAYORDER=
